<svg xmlns="http://www.w3.org/2000/svg" width="71.182" height="75.927" viewBox="0 0 71.182 75.927">
  <g id="download" transform="translate(-16)">
    <g id="Grupo_36" data-name="Grupo 36" transform="translate(32.609)">
      <g id="Grupo_35" data-name="Grupo 35">
        <path id="Caminho_2790" data-name="Caminho 2790" d="M165.748,34.608a2.367,2.367,0,0,0-2.159-1.39H154.1V2.373A2.374,2.374,0,0,0,151.726,0h-9.491a2.374,2.374,0,0,0-2.373,2.373V33.218h-9.491a2.372,2.372,0,0,0-1.784,3.934L145.2,56.134a2.367,2.367,0,0,0,3.569,0l16.609-18.982A2.366,2.366,0,0,0,165.748,34.608Z" transform="translate(-127.998)" fill="#f6d604"/>
      </g>
    </g>
    <g id="Grupo_38" data-name="Grupo 38" transform="translate(16 52.2)">
      <g id="Grupo_37" data-name="Grupo 37">
        <path id="Caminho_2791" data-name="Caminho 2791" d="M77.691,352v14.236h-52.2V352H16v18.982a4.744,4.744,0,0,0,4.745,4.745H82.436a4.741,4.741,0,0,0,4.745-4.745V352Z" transform="translate(-16 -352)" fill="#f6d604"/>
      </g>
    </g>
  </g>
</svg>
