<svg xmlns="http://www.w3.org/2000/svg" width="40" height="40" viewBox="0 0 40 40">
  <g id="twitter" transform="translate(-0.001)">
    <circle id="Elipse_6" data-name="Elipse 6" cx="20" cy="20" r="20" transform="translate(0.001 0)" fill="#55acee"/>
    <g id="Grupo_1" data-name="Grupo 1" transform="translate(9.036 12.206)">
      <path id="Caminho_4" data-name="Caminho 4" d="M48.245,36.254A9.473,9.473,0,0,1,45.518,37a4.761,4.761,0,0,0,2.088-2.626,9.5,9.5,0,0,1-3.015,1.152A4.752,4.752,0,0,0,36.5,39.858,13.478,13.478,0,0,1,26.714,34.9a4.753,4.753,0,0,0,1.469,6.339,4.714,4.714,0,0,1-2.15-.595c0,.02,0,.04,0,.06a4.751,4.751,0,0,0,3.809,4.655,4.766,4.766,0,0,1-2.144.082,4.753,4.753,0,0,0,4.435,3.3A9.584,9.584,0,0,1,25.1,50.7,13.5,13.5,0,0,0,45.889,39.326c0-.206,0-.411-.014-.614a9.628,9.628,0,0,0,2.37-2.457Z" transform="translate(-25.103 -34.028)" fill="#f1f2f2"/>
    </g>
  </g>
</svg>
