<svg id="Grupo_33" data-name="Grupo 33" xmlns="http://www.w3.org/2000/svg" width="87.403" height="87.403" viewBox="0 0 87.403 87.403">
  <path id="Caminho_2772" data-name="Caminho 2772" d="M28.686,16.3c4.043,0,6.472,2.157,6.472,5.794,0,6.607-11.793,8.428-11.793,16.446a4.286,4.286,0,0,0,4.311,4.513c4.448,0,3.91-3.3,5.529-5.664,2.154-3.165,12.2-6.535,12.2-15.3,0-9.5-8.489-13.48-17.117-13.48-8.219,0-15.771,5.864-15.771,12.471,0,2.695,2.024,4.111,4.383,4.111C23.43,25.2,20.062,16.3,28.686,16.3Z" transform="translate(14.746 10.148)" fill="#f6d604"/>
  <path id="Caminho_2773" data-name="Caminho 2773" d="M28.114,31.962a5.526,5.526,0,1,0-5.526,5.526A5.551,5.551,0,0,0,28.114,31.962Z" transform="translate(20.103 31.15)" fill="#f6d604"/>
  <path id="Caminho_2774" data-name="Caminho 2774" d="M87.4,43.7A43.7,43.7,0,1,0,43.7,87.4,43.752,43.752,0,0,0,87.4,43.7Zm-83.047,0A39.345,39.345,0,1,1,43.7,83.047,39.391,39.391,0,0,1,4.357,43.7Z" fill="#f6d604"/>
</svg>
