<svg id="paper-plane" xmlns="http://www.w3.org/2000/svg" width="24" height="23" viewBox="0 0 24 23">
  <path id="Caminho_2770" data-name="Caminho 2770" d="M8.75,17.612V22.25a.75.75,0,0,0,1.354.444L12.817,19Z" fill="#707070"/>
  <path id="Caminho_2771" data-name="Caminho 2771" d="M23.685.139A.75.75,0,0,0,22.9.085L.4,11.835a.75.75,0,0,0,.1,1.375l6.255,2.138L20.083,3.958,9.775,16.377,20.258,19.96A.767.767,0,0,0,20.5,20a.749.749,0,0,0,.742-.639l2.75-18.5a.751.751,0,0,0-.307-.722Z" fill="#707070"/>
</svg>
