<svg id="whatsapp" xmlns="http://www.w3.org/2000/svg" width="40" height="40" viewBox="0 0 40 40">
  <path id="Caminho_5" data-name="Caminho 5" d="M20.005,0H20A19.988,19.988,0,0,0,3.808,31.723l-2.493,7.43L9,36.7a20,20,0,1,0,11-36.7Z" fill="#4caf50"/>
  <path id="Caminho_6" data-name="Caminho 6" d="M131.693,137.314c-.507,1.443-2.518,2.64-4.122,2.99-1.1.236-2.531.424-7.356-1.594-6.172-2.579-10.147-8.906-10.457-9.316s-2.494-3.35-2.494-6.39a6.788,6.788,0,0,1,2.148-5.156,3.036,3.036,0,0,1,2.148-.76c.26,0,.494.013.7.024.617.026.927.064,1.334,1.046.507,1.231,1.741,4.271,1.888,4.584a1.27,1.27,0,0,1,.089,1.147,3.661,3.661,0,0,1-.68.972c-.31.36-.6.636-.914,1.022-.284.336-.6.7-.247,1.319a18.781,18.781,0,0,0,3.408,4.271,15.414,15.414,0,0,0,4.925,3.064,1.319,1.319,0,0,0,1.481-.236,25.6,25.6,0,0,0,1.641-2.193,1.167,1.167,0,0,1,1.507-.461c.567.2,3.568,1.695,4.185,2s1.024.461,1.174.723A5.319,5.319,0,0,1,131.693,137.314Z" transform="translate(-99.494 -108.606)" fill="#fafafa"/>
</svg>
